# Blender v2.80 (sub 75) OBJ File: 'CarppT-pintura.blend'
# www.blender.org
mtllib CarppT-pintura.mtl
o Cilindro
v -0.214907 1.000000 -0.429814
v 0.214907 1.000000 -0.429814
v -0.214907 0.747362 -0.347727
v 0.214907 0.747362 -0.347727
v -0.214907 0.591223 -0.132820
v 0.214907 0.591223 -0.132820
v -0.214907 0.591223 0.132820
v 0.214907 0.591223 0.132820
v -0.214907 0.747362 0.347727
v 0.214907 0.747362 0.347727
v -0.214907 1.000000 0.429814
v 0.214907 1.000000 0.429814
v -0.214907 1.252638 0.347727
v 0.214907 1.252638 0.347727
v -0.214907 1.408777 0.132820
v 0.214907 1.408777 0.132820
v -0.214907 1.408777 -0.132820
v 0.214907 1.408777 -0.132820
v -0.214907 1.252638 -0.347727
v 0.214907 1.252638 -0.347727
v -0.198988 1.000000 -0.477571
v 0.198988 1.000000 -0.477571
v 0.198988 0.719291 -0.386363
v -0.198988 0.719291 -0.386363
v 0.198988 0.545803 -0.147577
v -0.198988 0.545803 -0.147577
v 0.198988 0.545803 0.147577
v -0.198988 0.545803 0.147578
v 0.198988 0.719291 0.386363
v -0.198988 0.719291 0.386363
v 0.198988 1.000000 0.477571
v -0.198988 1.000000 0.477571
v 0.198988 1.280709 0.386363
v -0.198988 1.280709 0.386363
v 0.198988 1.454197 0.147578
v -0.198988 1.454197 0.147578
v 0.198988 1.454197 -0.147578
v -0.198988 1.454197 -0.147578
v 0.198988 1.280709 -0.386363
v -0.198988 1.280709 -0.386363
v -0.180556 1.000000 -0.500000
v 0.180555 1.000000 -0.500000
v 0.180556 0.706107 -0.404509
v -0.180556 0.706107 -0.404509
v 0.180556 0.524472 -0.154509
v -0.180555 0.524472 -0.154508
v 0.180556 0.524472 0.154509
v -0.180555 0.524472 0.154509
v 0.180556 0.706107 0.404509
v -0.180555 0.706107 0.404509
v 0.180556 1.000000 0.500000
v -0.180555 1.000000 0.500000
v 0.180556 1.293893 0.404508
v -0.180556 1.293893 0.404508
v 0.180555 1.475528 0.154509
v -0.180556 1.475528 0.154509
v 0.180555 1.475528 -0.154509
v -0.180556 1.475528 -0.154509
v 0.180555 1.293893 -0.404509
v -0.180556 1.293893 -0.404509
v -0.214907 1.000000 -0.366090
v -0.214907 0.784818 -0.296173
v -0.214907 0.651828 -0.113128
v -0.214907 0.651828 0.113128
v -0.214907 0.784818 0.296173
v -0.214907 1.000000 0.366090
v -0.214907 1.215182 0.296173
v -0.214907 1.348172 0.113128
v -0.214907 1.348172 -0.113128
v -0.214907 1.215182 -0.296173
v -0.113217 1.000000 -0.366090
v -0.113217 0.784818 -0.296173
v -0.113216 0.651828 -0.113128
v -0.113216 0.651828 0.113128
v -0.113216 0.784818 0.296173
v -0.113216 1.000000 0.366090
v -0.113217 1.215182 0.296173
v -0.113217 1.348172 0.113128
v -0.113217 1.348172 -0.113128
v -0.113217 1.215182 -0.296173
v -0.125885 1.000000 -0.065300
v -0.125885 0.961617 -0.052829
v -0.125885 0.937896 -0.020179
v -0.125885 0.937896 0.020179
v -0.125885 0.961617 0.052829
v -0.125885 1.000000 0.065300
v -0.125885 1.038383 0.052829
v -0.125885 1.062104 0.020179
v -0.125885 1.062104 -0.020179
v -0.125885 1.038382 -0.052829
v 0.078424 0.747362 -0.347727
v 0.078424 1.000000 -0.429814
v 0.078424 0.591223 -0.132820
v 0.078424 0.591223 0.132820
v 0.078424 0.747362 0.347727
v 0.078424 1.000000 0.429814
v 0.078424 1.252638 0.347727
v 0.078424 1.408777 0.132820
v 0.078424 1.408777 -0.132820
v 0.078424 1.252638 -0.347727
v -0.062025 0.784818 -0.296173
v -0.062025 0.651828 -0.113128
v -0.062025 0.651828 0.113128
v -0.062025 0.784818 0.296173
v -0.062025 1.000000 0.366090
v -0.062025 1.215182 0.296173
v -0.062025 1.348172 0.113128
v -0.062025 1.348172 -0.113128
v -0.062025 1.215182 -0.296173
v -0.062025 1.000000 -0.366090
v -0.049357 1.000000 -0.258612
v -0.049357 0.847992 -0.209222
v -0.049357 0.754045 -0.079916
v -0.049357 0.754045 0.079916
v -0.049357 0.847992 0.209222
v -0.049357 1.000000 0.258612
v -0.049357 1.152008 0.209222
v -0.049357 1.245955 0.079916
v -0.049357 1.245955 -0.079916
v -0.049357 1.152008 -0.209222
v 0.037320 1.000000 -0.258612
v 0.037320 0.847992 -0.209222
v 0.037320 0.754045 -0.079916
v 0.037320 0.754045 0.079916
v 0.037320 0.847992 0.209222
v 0.037320 1.000000 0.258612
v 0.037320 1.152008 0.209222
v 0.037320 1.245955 0.079916
v 0.037320 1.245955 -0.079916
v 0.037320 1.152008 -0.209222
v -0.000000 1.000000 -0.517790
v 0.000000 0.695651 -0.418901
v 0.000000 0.507553 -0.160006
v 0.000001 0.507553 0.160006
v 0.000001 0.695651 0.418901
v 0.000000 1.000000 0.517790
v -0.000000 1.304349 0.418901
v -0.000000 1.492447 0.160006
v -0.000001 1.492447 -0.160006
v -0.000001 1.304349 -0.418901
vt 0.522055 0.420865
vt 0.546594 0.429167
vt 0.454290 0.549065
vt 0.439512 0.528177
vt 0.310834 0.591295
vt 0.311137 0.566009
vt 0.171405 0.541865
vt 0.186255 0.521737
vt 0.087624 0.421718
vt 0.111167 0.413958
vt 0.088341 0.276378
vt 0.112276 0.283382
vt 0.169930 0.152806
vt 0.185895 0.172822
vt 0.314194 0.098507
vt 0.314806 0.124852
vt 0.462534 0.148559
vt 0.446911 0.170023
vt 0.114796 0.614842
vt 0.000197 0.448491
vt 0.550744 0.276068
vt 0.525712 0.283944
vt 0.360357 0.411347
vt 0.316122 0.426663
vt 0.316178 0.415858
vt 0.353851 0.402501
vt 0.387073 0.324153
vt 0.395853 0.321266
vt 0.396431 0.374976
vt 0.387606 0.372247
vt 0.512729 0.287874
vt 0.509407 0.416435
vt 0.359228 0.285666
vt 0.364549 0.278339
vt 0.438704 0.181006
vt 0.315243 0.271781
vt 0.315228 0.262978
vt 0.314946 0.138488
vt 0.271176 0.286081
vt 0.265821 0.278686
vt 0.194031 0.183313
vt 0.242881 0.325007
vt 0.233883 0.322140
vt 0.124644 0.287196
vt 0.243668 0.373635
vt 0.234862 0.376555
vt 0.123436 0.410090
vt 0.271641 0.412308
vt 0.266273 0.419652
vt 0.194073 0.511393
vt 0.316190 0.435694
vt 0.311437 0.552916
vt 0.365857 0.418632
vt 0.431978 0.517285
vt 0.401726 0.376625
vt 0.369154 0.423021
vt 0.442525 0.392112
vt 0.392761 0.459058
vt 0.316229 0.441142
vt 0.313949 0.483646
vt 0.263044 0.424078
vt 0.236185 0.457121
vt 0.229577 0.378307
vt 0.188178 0.390023
vt 0.228477 0.320407
vt 0.186057 0.306754
vt 0.262621 0.274228
vt 0.236090 0.240213
vt 0.315225 0.257669
vt 0.315143 0.215564
vt 0.367742 0.273924
vt 0.394726 0.239832
vt 0.401119 0.319538
vt 0.443492 0.308059
vt 0.278245 0.403609
vt 0.254378 0.370329
vt 0.270656 0.364497
vt 0.287668 0.389960
vt 0.377016 0.368797
vt 0.376398 0.327429
vt 0.352673 0.294333
vt 0.315123 0.282349
vt 0.277533 0.295044
vt 0.253639 0.328602
vt 0.960868 0.237159
vt 0.965562 0.127835
vt 0.988744 0.177276
vt 0.986096 0.179098
vt 0.343123 0.389674
vt 0.360537 0.364495
vt 0.343294 0.307917
vt 0.315885 0.298286
vt 0.270316 0.333082
vt 0.315322 0.399610
vt 0.360189 0.333234
vt 0.288106 0.308014
vt 0.668321 0.141907
vt 0.664692 0.232368
vt 0.644855 0.233543
vt 0.650414 0.139684
vt 0.677779 0.085882
vt 0.652636 0.102355
vt 0.732708 0.053549
vt 0.680985 0.085885
vt 0.674958 0.295798
vt 0.673708 0.298816
vt 0.679509 0.328516
vt 0.645951 0.276539
vt 0.805671 0.347956
vt 0.911261 0.311088
vt 0.871971 0.352190
vt 0.869255 0.350343
vt 0.720502 0.327657
vt 0.713639 0.343609
vt 0.914029 0.060082
vt 0.813797 0.026174
vt 0.867147 0.018280
vt 0.868100 0.021242
vt 0.724717 0.036511
vt 0.810089 0.009491
vt 0.844786 0.374765
vt 0.802921 0.367354
vt 0.910227 0.428449
vt 0.938243 0.514674
vt 0.910227 0.600898
vt 0.836880 0.654188
vt 0.746218 0.654188
vt 0.672871 0.600898
vt 0.644855 0.514674
vt 0.672871 0.428449
vt 0.746218 0.375159
vt 0.836880 0.375159
vt 0.636817 0.462252
vt 0.507078 0.627820
vt 0.307394 0.684815
vt 0.644461 0.249043
vt 0.522239 0.069729
vt 0.313092 0.000197
vt 0.111763 0.077105
vt 0.000197 0.248463
vt 0.685292 0.868046
vt 0.644855 0.809620
vt 0.678124 0.798574
vt 0.704606 0.838964
vt 0.254734 0.685210
vt 0.331954 0.685210
vt 0.320619 0.720363
vt 0.266069 0.720363
vt 0.409569 0.720363
vt 0.332348 0.720363
vt 0.343684 0.685210
vt 0.398233 0.685210
vt 0.487184 0.720363
vt 0.409963 0.720363
vt 0.421299 0.685210
vt 0.475848 0.685210
vt 0.487578 0.685210
vt 0.564798 0.685210
vt 0.553463 0.720363
vt 0.498913 0.720363
vt 0.254339 0.720363
vt 0.177119 0.720363
vt 0.188454 0.685210
vt 0.243004 0.685210
vt 0.999803 0.149976
vt 0.999803 0.210394
vt 0.687293 0.053073
vt 0.902361 0.352649
vt 0.900627 0.017281
vt 0.927585 0.047251
vt 0.844654 0.000197
vt 0.925011 0.322553
vt 0.980386 0.119176
vt 0.978065 0.246567
vt 0.176724 0.769153
vt 0.159867 0.821033
vt 0.115736 0.853096
vt 0.061186 0.853096
vt 0.017054 0.821033
vt 0.000197 0.769153
vt 0.017054 0.717273
vt 0.061186 0.685210
vt 0.115736 0.685210
vt 0.159867 0.717273
vt 0.862235 0.806045
vt 0.820766 0.865007
vt 0.798140 0.837663
vt 0.827872 0.796687
vt 0.753373 0.654582
vt 0.821144 0.675623
vt 0.801584 0.704719
vt 0.756017 0.689281
vt 0.647803 0.738462
vt 0.681734 0.748348
vt 0.753146 0.888675
vt 0.750790 0.853582
vt 0.862235 0.734078
vt 0.828810 0.745946
vt 0.687591 0.679882
vt 0.710566 0.706224
vn 0.9437 -0.1022 -0.3146
vn 0.9437 -0.2676 -0.1944
vn 0.9437 -0.3308 -0.0000
vn 0.9437 -0.2676 0.1944
vn 0.9437 -0.1022 0.3146
vn 0.9437 0.1022 0.3146
vn 0.9437 0.2676 0.1944
vn 0.9437 0.3308 -0.0000
vn -0.0000 0.8090 -0.5878
vn 0.9437 0.2676 -0.1944
vn 0.9437 0.1022 -0.3146
vn -1.0000 -0.0000 0.0000
vn -0.9437 0.1022 -0.3146
vn 0.7566 0.2020 -0.6218
vn -0.9437 0.2676 -0.1944
vn 0.7566 0.5290 -0.3843
vn -0.9437 0.3308 0.0000
vn 0.7566 0.6538 -0.0000
vn -0.9437 0.2676 0.1944
vn 0.7567 0.5289 0.3843
vn -0.9437 0.1022 0.3146
vn 0.7567 0.2020 0.6218
vn -0.9437 -0.1022 0.3146
vn 0.7567 -0.2020 0.6218
vn -0.9437 -0.2676 0.1944
vn 0.7567 -0.5289 0.3843
vn -0.9437 -0.3308 0.0000
vn 0.7567 -0.6538 -0.0000
vn -0.9437 -0.2676 -0.1944
vn 0.7567 -0.5289 -0.3843
vn -0.9437 -0.1022 -0.3146
vn 0.7567 -0.2020 -0.6218
vn -0.7567 -0.2020 -0.6218
vn 0.0933 -0.3077 -0.9469
vn -0.7567 -0.5289 -0.3843
vn 0.0933 -0.8055 -0.5852
vn -0.7566 -0.6538 0.0000
vn 0.0933 -0.9956 0.0000
vn -0.7566 -0.5290 0.3843
vn 0.0933 -0.8055 0.5852
vn -0.7566 -0.2020 0.6218
vn 0.0933 -0.3077 0.9469
vn -0.7567 0.2020 0.6218
vn 0.0933 0.3077 0.9469
vn -0.7567 0.5289 0.3843
vn 0.0933 0.8055 0.5852
vn -0.7567 0.6538 0.0000
vn 0.0933 0.9956 -0.0000
vn -0.7567 0.5289 -0.3843
vn 0.0933 0.8055 -0.5852
vn -0.7567 0.2020 -0.6218
vn 0.0933 0.3077 -0.9469
vn -0.9990 -0.0137 -0.0421
vn 0.0000 0.3090 0.9511
vn -0.0000 -1.0000 0.0000
vn 0.0000 0.3090 -0.9511
vn 0.0000 0.8090 0.5878
vn -0.0000 -0.8090 0.5878
vn 0.0000 -0.3090 -0.9511
vn 0.0000 1.0000 -0.0000
vn 0.0000 -0.3090 0.9511
vn -0.0000 -0.8090 -0.5878
vn -0.9990 -0.0137 0.0421
vn 0.9232 -0.3109 -0.2259
vn -0.9990 0.0358 -0.0260
vn -0.9990 -0.0442 0.0000
vn -0.9990 0.0358 0.0260
vn 1.0000 0.0000 -0.0000
vn -0.9924 -0.1230 0.0000
vn -0.9924 0.0995 0.0723
vn -0.9924 -0.0380 -0.1170
vn -0.9924 -0.0380 0.1170
vn -0.9924 0.0995 -0.0723
vn 0.9232 0.1188 0.3655
vn 0.9232 -0.3109 0.2259
vn 0.9232 0.3843 0.0000
vn 0.9232 0.1188 -0.3655
vn -0.0933 0.3077 -0.9469
vn -0.0933 0.8055 -0.5852
vn -0.0933 0.9956 0.0000
vn -0.0933 0.8055 0.5852
vn -0.0933 0.3077 0.9469
vn -0.0933 -0.3077 0.9469
vn -0.0933 -0.8055 0.5852
vn -0.0933 -0.9956 0.0000
vn -0.0933 -0.8055 -0.5852
vn -0.0933 -0.3077 -0.9469
usemtl Material.001
s off
f 22/1/1 2/2/1 4/3/1 23/4/1
f 23/4/2 4/3/2 6/5/2 25/6/2
f 25/6/3 6/5/3 8/7/3 27/8/3
f 27/8/4 8/7/4 10/9/4 29/10/4
f 29/10/5 10/9/5 12/11/5 31/12/5
f 31/12/6 12/11/6 14/13/6 33/14/6
f 33/14/7 14/13/7 16/15/7 35/16/7
f 35/16/8 16/15/8 18/17/8 37/18/8
f 10/9/9 8/7/9 94/19/9 95/20/9
f 37/18/10 18/17/10 20/21/10 39/22/10
f 39/22/11 20/21/11 2/2/11 22/1/11
f 3/23/12 5/24/12 63/25/12 62/26/12
f 19/27/13 40/28/13 21/29/13 1/30/13
f 59/31/14 39/22/14 22/1/14 42/32/14
f 17/33/15 38/34/15 40/28/15 19/27/15
f 57/35/16 37/18/16 39/22/16 59/31/16
f 15/36/17 36/37/17 38/34/17 17/33/17
f 55/38/18 35/16/18 37/18/18 57/35/18
f 13/39/19 34/40/19 36/37/19 15/36/19
f 53/41/20 33/14/20 35/16/20 55/38/20
f 11/42/21 32/43/21 34/40/21 13/39/21
f 51/44/22 31/12/22 33/14/22 53/41/22
f 9/45/23 30/46/23 32/43/23 11/42/23
f 49/47/24 29/10/24 31/12/24 51/44/24
f 7/48/25 28/49/25 30/46/25 9/45/25
f 47/50/26 27/8/26 29/10/26 49/47/26
f 5/24/27 26/51/27 28/49/27 7/48/27
f 45/52/28 25/6/28 27/8/28 47/50/28
f 3/23/29 24/53/29 26/51/29 5/24/29
f 43/54/30 23/4/30 25/6/30 45/52/30
f 1/30/31 21/29/31 24/53/31 3/23/31
f 42/32/32 22/1/32 23/4/32 43/54/32
f 21/29/33 41/55/33 44/56/33 24/53/33
f 131/57/34 42/32/34 43/54/34 132/58/34
f 24/53/35 44/56/35 46/59/35 26/51/35
f 132/58/36 43/54/36 45/52/36 133/60/36
f 26/51/37 46/59/37 48/61/37 28/49/37
f 133/60/38 45/52/38 47/50/38 134/62/38
f 28/49/39 48/61/39 50/63/39 30/46/39
f 134/62/40 47/50/40 49/47/40 135/64/40
f 30/46/41 50/63/41 52/65/41 32/43/41
f 135/64/42 49/47/42 51/44/42 136/66/42
f 32/43/43 52/65/43 54/67/43 34/40/43
f 136/66/44 51/44/44 53/41/44 137/68/44
f 34/40/45 54/67/45 56/69/45 36/37/45
f 137/68/46 53/41/46 55/38/46 138/70/46
f 36/37/47 56/69/47 58/71/47 38/34/47
f 138/70/48 55/38/48 57/35/48 139/72/48
f 38/34/49 58/71/49 60/73/49 40/28/49
f 139/72/50 57/35/50 59/31/50 140/74/50
f 40/28/51 60/73/51 41/55/51 21/29/51
f 140/74/52 59/31/52 42/32/52 131/57/52
f 64/75/9 65/76/9 75/77/9 74/78/9
f 19/27/12 1/30/12 61/79/12 70/80/12
f 17/33/12 19/27/12 70/80/12 69/81/12
f 15/36/12 17/33/12 69/81/12 68/82/12
f 13/39/12 15/36/12 68/82/12 67/83/12
f 11/42/12 13/39/12 67/83/12 66/84/12
f 9/45/12 11/42/12 66/84/12 65/76/12
f 7/48/12 9/45/12 65/76/12 64/75/12
f 1/30/12 3/23/12 62/26/12 61/79/12
f 5/24/12 7/48/12 64/75/12 63/25/12
f 71/85/53 72/86/53 82/87/53 81/88/53
f 61/79/54 62/26/54 72/89/54 71/90/54
f 68/82/55 69/81/55 79/91/55 78/92/55
f 65/76/56 66/84/56 76/93/56 75/77/56
f 62/26/57 63/25/57 73/94/57 72/89/57
f 69/81/58 70/80/58 80/95/58 79/91/58
f 66/84/59 67/83/59 77/96/59 76/93/59
f 63/25/60 64/75/60 74/78/60 73/94/60
f 70/80/61 61/79/61 71/90/61 80/95/61
f 67/83/62 68/82/62 78/92/62 77/96/62
f 76/97/59 77/98/59 106/99/59 105/100/59
f 86/101/60 76/97/60 105/100/60 116/102/60
f 75/103/63 76/97/63 86/101/63 85/104/63
f 87/105/64 88/106/64 118/107/64 117/108/64
f 79/109/65 80/110/65 90/111/65 89/112/65
f 88/106/56 78/113/56 107/114/56 118/107/56
f 73/115/66 74/116/66 84/117/66 83/118/66
f 74/116/9 75/103/9 104/119/9 103/120/9
f 77/98/67 78/113/67 88/106/67 87/105/67
f 79/109/54 89/112/54 119/121/54 108/122/54
f 91/123/68 92/124/68 100/125/68 99/126/68 98/127/68 97/128/68 96/129/68 95/130/68 94/131/68 93/132/68
f 4/3/54 2/2/54 92/133/54 91/134/54
f 8/7/60 6/5/60 93/135/60 94/19/60
f 6/5/57 4/3/57 91/134/57 93/135/57
f 2/2/61 20/21/61 100/136/61 92/133/61
f 20/21/58 18/17/58 99/137/58 100/136/58
f 18/17/55 16/15/55 98/138/55 99/137/55
f 16/15/62 14/13/62 97/139/62 98/138/62
f 14/13/59 12/11/59 96/140/59 97/139/59
f 12/11/56 10/9/56 95/20/56 96/140/56
f 114/141/9 115/142/9 125/143/9 124/144/9
f 107/145/69 108/146/69 119/147/69 118/148/69
f 101/149/70 102/150/70 113/151/70 112/152/70
f 105/153/71 106/154/71 117/155/71 116/156/71
f 109/157/72 110/158/72 111/159/72 120/160/72
f 103/161/73 104/162/73 115/163/73 114/164/73
f 81/88/74 82/87/74 112/165/74 111/166/74
f 75/103/62 85/104/62 115/167/62 104/119/62
f 89/112/75 90/111/75 120/168/75 119/121/75
f 73/115/56 83/118/56 113/169/56 102/170/56
f 78/113/55 79/109/55 108/122/55 107/114/55
f 83/118/76 84/117/76 114/171/76 113/169/76
f 90/111/62 80/110/62 109/172/62 120/168/62
f 82/87/58 72/86/58 101/173/58 112/165/58
f 77/98/58 87/105/58 117/108/58 106/99/58
f 72/86/57 73/115/57 102/170/57 101/173/57
f 71/85/60 81/88/60 111/166/60 110/174/60
f 80/110/61 71/85/61 110/174/61 109/172/61
f 85/104/77 86/101/77 116/102/77 115/167/77
f 84/117/54 74/116/54 103/120/54 114/171/54
f 121/175/12 122/176/12 123/177/12 124/178/12 125/179/12 126/180/12 127/181/12 128/182/12 129/183/12 130/184/12
f 111/185/54 112/186/54 122/187/54 121/188/54
f 118/189/55 119/190/55 129/191/55 128/192/55
f 115/142/56 116/193/56 126/194/56 125/143/56
f 112/186/57 113/195/57 123/196/57 122/187/57
f 119/190/58 120/197/58 130/198/58 129/191/58
f 116/193/59 117/199/59 127/200/59 126/194/59
f 113/195/60 114/141/60 124/144/60 123/196/60
f 120/197/61 111/185/61 121/188/61 130/198/61
f 117/199/62 118/189/62 128/192/62 127/200/62
f 60/73/78 140/74/78 131/57/78 41/55/78
f 58/71/79 139/72/79 140/74/79 60/73/79
f 56/69/80 138/70/80 139/72/80 58/71/80
f 54/67/81 137/68/81 138/70/81 56/69/81
f 52/65/82 136/66/82 137/68/82 54/67/82
f 50/63/83 135/64/83 136/66/83 52/65/83
f 48/61/84 134/62/84 135/64/84 50/63/84
f 46/59/85 133/60/85 134/62/85 48/61/85
f 44/56/86 132/58/86 133/60/86 46/59/86
f 41/55/87 131/57/87 132/58/87 44/56/87
