# Blender v2.80 (sub 75) OBJ File: 'Planecon-Pintura.blend'
# www.blender.org
mtllib Planecon-Pintura.mtl
o Cubo
v -1.151464 1.520893 0.609212
v -1.301847 1.147900 0.600928
v -0.964426 1.407758 -0.174388
v -0.964426 0.967108 -0.174388
v -0.500000 0.729392 -1.000000
v -0.361255 1.679691 1.558554
v -1.568510 0.912395 1.511049
v -0.289291 0.816938 3.712923
v -0.289291 1.131268 3.712923
v -0.205527 0.834245 4.026279
v -0.205527 0.966548 4.026279
v -0.261901 1.826348 1.302933
v -0.216945 1.665607 1.881753
v -0.202331 1.483268 2.936206
v -0.168645 1.732067 2.083575
v -0.275811 1.144925 3.684458
v -0.195896 1.469611 2.964670
v -0.261835 1.158638 3.655876
v -0.188994 1.455898 2.993252
v -0.261835 1.100643 3.445727
v -0.188994 1.383034 2.857136
v -0.964426 1.220619 -0.174388
v -1.291154 1.396600 0.601517
v -1.162283 0.966956 1.514427
v -0.289291 0.839289 3.712923
v -0.205527 0.843653 4.026279
v -0.731981 1.319475 -0.232867
v -0.731981 1.416406 -0.232867
v -0.715455 1.319474 -0.136612
v -0.715455 1.416406 -0.136612
v -0.939470 1.246481 -0.180667
v -0.939471 1.393438 -0.180667
v -0.756936 1.324110 -0.226589
v -0.756936 1.400229 -0.226589
v 1.151463 1.520893 0.609212
v 1.301847 1.147900 0.600928
v 0.964425 1.407759 -0.174388
v 0.964425 0.967108 -0.174388
v -0.000000 2.262874 -0.999999
v -0.000000 0.729392 -1.000000
v -0.000000 1.884659 1.000001
v -0.000000 0.729392 1.000000
v 0.500000 0.729392 -1.000000
v 0.361255 1.679691 1.558554
v -0.000000 1.892012 -0.417019
v 1.568510 0.912396 1.511049
v 0.289291 0.816938 3.712923
v -0.000000 0.816938 3.712923
v -0.000000 1.131268 3.712923
v 0.289291 1.131268 3.712923
v 0.205527 0.834245 4.026279
v -0.000000 0.834245 4.236144
v -0.000000 0.966548 4.236144
v 0.205527 0.966548 4.026279
v 0.261901 1.826348 1.302933
v 0.216945 1.665607 1.881753
v -0.000000 1.826348 1.302933
v -0.000000 1.665607 1.881753
v -0.000000 1.483268 2.936206
v 0.202330 1.483268 2.936206
v -0.000000 1.732067 2.083575
v 0.168644 1.732067 2.083575
v -0.000000 1.144925 3.684458
v 0.275811 1.144925 3.684458
v -0.000000 1.469611 2.964670
v 0.195895 1.469611 2.964670
v -0.000000 1.158638 3.655876
v 0.261835 1.158638 3.655876
v -0.000000 1.455898 2.993252
v 0.188994 1.455898 2.993252
v -0.000000 1.100643 3.445727
v 0.261835 1.100643 3.445727
v -0.000000 1.383034 2.857136
v 0.188994 1.383034 2.857136
v 0.964425 1.220619 -0.174388
v 1.291154 1.396600 0.601517
v 1.162283 0.966956 1.514427
v -0.000000 1.182402 -0.417020
v 0.289291 0.839289 3.712923
v -0.000000 0.843653 4.236144
v 0.205527 0.843653 4.026279
v 0.731981 1.319475 -0.232867
v 0.731981 1.416406 -0.232867
v -0.000000 1.667231 -0.358541
v -0.000000 1.299680 -0.358541
v 0.715455 1.319475 -0.136612
v 0.715455 1.416406 -0.136612
v -0.000000 1.667231 -0.262286
v -0.000000 1.299680 -0.262286
v 0.939470 1.246481 -0.180667
v 0.939470 1.393438 -0.180667
v 0.756936 1.324111 -0.226589
v 0.756936 1.400229 -0.226589
vt 0.806321 0.887887
vt 0.870050 0.788028
vt 0.941226 0.896514
vt 0.932013 0.928909
vt 0.646429 0.480212
vt 0.659454 0.508804
vt 0.551860 0.532625
vt 0.544962 0.503747
vt 0.639729 0.310162
vt 0.635514 0.457311
vt 0.538724 0.482513
vt 0.396335 0.421508
vt 0.803648 0.789838
vt 0.796407 0.524231
vt 1.004159 0.450320
vt 0.434004 0.887991
vt 0.114610 0.904462
vt 0.385950 0.868427
vt 0.463643 0.868400
vt 0.453618 0.612495
vt 0.433157 0.563076
vt 0.783820 0.490791
vt 0.751484 0.891523
vt 0.672201 0.912110
vt 0.512082 0.861289
vt 0.113765 0.570469
vt 0.113778 0.575034
vt 0.054842 0.572866
vt 0.054822 0.571204
vt 0.787306 0.163738
vt 0.825723 0.162614
vt 0.003227 0.572992
vt 0.003223 0.571340
vt 0.098504 0.862805
vt 0.058971 0.912110
vt 0.018725 0.891210
vt 0.785246 0.094218
vt 0.813380 0.121263
vt 0.472862 0.838039
vt 0.389211 0.836254
vt 0.358443 0.854495
vt 0.359456 0.832868
vt 0.240741 0.868648
vt 0.244796 0.841711
vt 0.119235 0.901129
vt 0.235556 0.868197
vt 0.240699 0.841110
vt 0.230319 0.867821
vt 0.237714 0.840486
vt 0.103030 0.861055
vt 0.123794 0.897854
vt 0.147269 0.876783
vt 0.222864 0.845773
vt 0.107029 0.859436
vt 0.148942 0.832214
vt 0.148942 0.797641
vt 0.235144 0.797641
vt 0.235144 0.822596
vt 0.231667 0.836501
vt 0.132034 0.846751
vt 0.054948 0.549752
vt 0.003223 0.549714
vt 0.111962 0.524600
vt 0.889404 0.931849
vt 0.803827 0.900209
vt 0.887596 0.952185
vt 0.873002 0.944323
vt 0.875550 0.936738
vt 0.927794 0.931137
vt 0.894464 0.933982
vt 0.926433 0.954492
vt 0.785246 1.000452
vt 0.789972 0.975598
vt 0.789307 0.965423
vt 0.802243 0.909318
vt 0.923132 0.951975
vt 0.892439 0.949892
vt 0.932013 0.928909
vt 0.941226 0.896514
vt 0.870050 0.788028
vt 0.646429 0.480212
vt 0.544962 0.503747
vt 0.551860 0.532625
vt 0.659454 0.508804
vt 0.396335 0.421508
vt 0.538724 0.482513
vt 0.635514 0.457311
vt 1.004159 0.450320
vt 0.434004 0.887991
vt 0.463643 0.868400
vt 0.385950 0.868427
vt 0.114610 0.904462
vt 0.433157 0.563076
vt 0.453618 0.612495
vt 0.783820 0.490791
vt 0.113765 0.570469
vt 0.054822 0.571204
vt 0.054842 0.572866
vt 0.113778 0.575034
vt 0.825723 0.162614
vt 0.058971 0.912110
vt 0.813380 0.121263
vt 0.358443 0.854495
vt 0.240741 0.868648
vt 0.235556 0.868197
vt 0.119235 0.901129
vt 0.230319 0.867821
vt 0.222864 0.845773
vt 0.147269 0.876783
vt 0.123794 0.897854
vt 0.148942 0.832214
vt 0.235144 0.822596
vt 0.054948 0.549752
vt 0.111962 0.524600
vt 0.889404 0.931849
vt 0.875550 0.936738
vt 0.873002 0.944323
vt 0.887596 0.952185
vt 0.894464 0.933982
vt 0.927794 0.931137
vt 0.926433 0.954492
vt 0.892439 0.949892
vt 0.923132 0.951975
vn -0.3157 0.7268 -0.6100
vn -0.9174 0.0200 -0.3974
vn -0.3325 0.9426 -0.0322
vn -0.0830 -0.9963 0.0208
vn -0.4576 0.8557 0.2416
vn -0.5722 0.7834 0.2426
vn -0.8528 -0.4134 -0.3191
vn -0.8446 0.5354 0.0028
vn -0.9661 -0.0000 0.2582
vn -0.0919 -0.9955 0.0223
vn -0.1853 0.9727 0.1400
vn -0.7145 -0.0000 0.6997
vn -0.1593 0.9130 0.3755
vn -0.0183 -0.9989 0.0432
vn -0.0000 0.9635 0.2676
vn -0.5410 0.7786 -0.3179
vn 0.0000 0.9498 -0.3128
vn -0.0000 0.9600 0.2801
vn 0.0000 0.9112 0.4120
vn -0.9091 0.4081 0.0832
vn -0.0000 0.9016 0.4326
vn 0.9892 -0.1369 0.0517
vn 0.0000 0.9120 0.4103
vn 0.0000 -0.8816 0.4719
vn 0.0000 0.9640 -0.2660
vn -0.7610 0.5954 0.2577
vn -0.6204 0.6722 0.4040
vn -0.8506 0.3902 -0.3525
vn -0.2002 0.2153 -0.9558
vn 0.0000 0.7896 -0.6136
vn 0.9856 0.0000 -0.1692
vn -0.2440 0.0000 -0.9698
vn -0.1447 -0.1556 -0.9772
vn -0.1730 0.0000 -0.9849
vn 0.0269 0.9996 -0.0023
vn 0.3230 -0.9460 -0.0277
vn 0.3157 0.7268 -0.6100
vn 0.9174 0.0200 -0.3974
vn 0.3325 0.9426 -0.0322
vn 0.0830 -0.9963 0.0208
vn 0.4576 0.8557 0.2416
vn 0.5722 0.7834 0.2426
vn 0.8528 -0.4134 -0.3191
vn 0.8446 0.5354 0.0028
vn 0.9661 0.0000 0.2582
vn 0.0919 -0.9955 0.0223
vn 0.1853 0.9727 0.1400
vn 0.7144 0.0000 0.6997
vn 0.1593 0.9130 0.3755
vn 0.0183 -0.9989 0.0432
vn 0.5410 0.7786 -0.3178
vn 0.9091 0.4081 0.0832
vn -0.9892 -0.1369 0.0517
vn 0.7145 0.0000 0.6997
vn 0.7610 0.5954 0.2577
vn 0.6204 0.6722 0.4040
vn 0.8506 0.3902 -0.3525
vn 0.2002 0.2153 -0.9558
vn -0.9856 -0.0000 -0.1692
vn 0.2440 0.0000 -0.9698
vn 0.1447 -0.1556 -0.9772
vn 0.1730 0.0000 -0.9849
vn -0.0269 0.9996 -0.0023
vn -0.3230 -0.9460 -0.0277
usemtl Material
s off
f 78/1/1 5/2/1 4/3/1 22/4/1
f 22/5/2 4/6/2 2/7/2 23/8/2
f 45/9/3 3/10/3 1/11/3 6/12/3
f 5/2/4 40/13/4 42/14/4 7/15/4
f 6/16/5 9/17/5 13/18/5 12/19/5
f 23/8/6 2/7/6 7/20/6 24/21/6
f 4/6/7 5/22/7 7/20/7 2/7/7
f 39/23/8 45/24/8 6/16/8 41/25/8
f 25/26/9 8/27/9 10/28/9 26/29/9
f 7/15/10 42/14/10 48/30/10 8/31/10
f 24/21/11 7/20/11 8/27/11 25/26/11
f 26/29/12 10/28/12 52/32/12 80/33/12
f 49/34/13 9/17/13 11/35/13 53/36/13
f 8/31/14 48/30/14 52/37/14 10/38/14
f 57/39/15 12/19/15 13/18/15 58/40/15
f 41/25/16 6/16/16 12/19/16 57/39/16
f 58/40/17 13/18/17 15/41/17 61/42/17
f 14/43/18 59/44/18 61/42/18 15/41/18
f 14/43/19 9/17/19 16/45/19 17/46/19
f 13/18/20 9/17/20 14/43/20 15/41/20
f 65/47/21 17/46/21 19/48/21 69/49/21
f 59/44/21 14/43/21 17/46/21 65/47/21
f 9/17/21 49/34/21 63/50/21 16/45/21
f 19/48/22 18/51/22 20/52/22 21/53/22
f 16/45/21 63/50/21 67/54/21 18/51/21
f 17/46/23 16/45/23 18/51/23 19/48/23
f 20/55/21 71/56/21 73/57/21 21/58/21
f 69/49/24 19/48/24 21/53/24 73/59/24
f 18/51/25 67/54/25 71/60/25 20/52/25
f 11/61/12 26/29/12 80/33/12 53/62/12
f 6/12/26 24/21/26 25/26/26 9/63/26
f 9/63/9 25/26/9 26/29/9 11/61/9
f 1/11/27 23/8/27 24/21/27 6/12/27
f 3/10/28 22/5/28 23/8/28 1/11/28
f 78/1/29 22/4/29 27/64/29 85/65/29
f 5/2/30 78/1/30 40/13/30
f 27/64/31 28/66/31 30/67/31 29/68/31
f 27/64/32 22/4/32 31/69/32 33/70/32
f 3/71/33 45/72/33 84/73/33 28/66/33
f 88/74/34 89/75/34 29/68/34 30/67/34
f 85/65/35 27/64/35 29/68/35 89/75/35
f 28/66/36 84/73/36 88/74/36 30/67/36
f 31/69/32 32/76/32 34/77/32 33/70/32
f 28/66/32 27/64/32 33/70/32 34/77/32
f 22/4/32 3/71/32 32/76/32 31/69/32
f 3/71/32 28/66/32 34/77/32 32/76/32
f 78/1/37 75/78/37 38/79/37 43/80/37
f 75/81/38 76/82/38 36/83/38 38/84/38
f 45/9/39 44/85/39 35/86/39 37/87/39
f 43/80/40 46/88/40 42/14/40 40/13/40
f 44/89/41 55/90/41 56/91/41 50/92/41
f 76/82/42 77/93/42 46/94/42 36/83/42
f 38/84/43 36/83/43 46/94/43 43/95/43
f 39/23/44 41/25/44 44/89/44 45/24/44
f 79/96/45 81/97/45 51/98/45 47/99/45
f 46/88/46 47/100/46 48/30/46 42/14/46
f 77/93/47 79/96/47 47/99/47 46/94/47
f 81/97/48 80/33/48 52/32/48 51/98/48
f 49/34/49 53/36/49 54/101/49 50/92/49
f 47/100/50 51/102/50 52/37/50 48/30/50
f 57/39/15 58/40/15 56/91/15 55/90/15
f 41/25/51 57/39/51 55/90/51 44/89/51
f 58/40/17 61/42/17 62/103/17 56/91/17
f 60/104/18 62/103/18 61/42/18 59/44/18
f 60/104/19 66/105/19 64/106/19 50/92/19
f 56/91/52 62/103/52 60/104/52 50/92/52
f 65/47/21 69/49/21 70/107/21 66/105/21
f 59/44/21 65/47/21 66/105/21 60/104/21
f 50/92/21 64/106/21 63/50/21 49/34/21
f 70/107/53 74/108/53 72/109/53 68/110/53
f 64/106/21 68/110/21 67/54/21 63/50/21
f 66/105/23 70/107/23 68/110/23 64/106/23
f 72/111/21 74/112/21 73/57/21 71/56/21
f 69/49/24 73/59/24 74/108/24 70/107/24
f 68/110/25 72/109/25 71/60/25 67/54/25
f 54/113/54 53/62/54 80/33/54 81/97/54
f 44/85/55 50/114/55 79/96/55 77/93/55
f 50/114/45 54/113/45 81/97/45 79/96/45
f 35/86/56 44/85/56 77/93/56 76/82/56
f 37/87/57 35/86/57 76/82/57 75/81/57
f 78/1/58 85/65/58 82/115/58 75/78/58
f 43/80/30 40/13/30 78/1/30
f 82/115/59 86/116/59 87/117/59 83/118/59
f 82/115/60 92/119/60 90/120/60 75/78/60
f 37/121/61 83/118/61 84/73/61 45/72/61
f 88/74/62 87/117/62 86/116/62 89/75/62
f 85/65/63 89/75/63 86/116/63 82/115/63
f 83/118/64 87/117/64 88/74/64 84/73/64
f 90/120/60 92/119/60 93/122/60 91/123/60
f 83/118/60 93/122/60 92/119/60 82/115/60
f 75/78/60 90/120/60 91/123/60 37/121/60
f 37/121/60 91/123/60 93/122/60 83/118/60
